<?xml version="1.0" standalone="no"?>
<!DOCTYPE svg PUBLIC "-//W3C//DTD SVG 20010904//EN"
 "http://www.w3.org/TR/2001/REC-SVG-20010904/DTD/svg10.dtd">
<svg version="1.0" xmlns="http://www.w3.org/2000/svg"
 width="1168.000000pt" height="1168.000000pt" viewBox="0 0 1168.000000 1168.000000"
 preserveAspectRatio="xMidYMid meet">
<metadata>
Created by potrace 1.14, written by Peter Selinger 2001-2017
</metadata>
<g transform="translate(0.000000,1168.000000) scale(0.100000,-0.100000)"
fill="#000000" stroke="none">
<path d="M5463 11574 l-51 -106 126 -60 c70 -34 201 -96 292 -139 l165 -78 50
102 c27 56 50 104 51 105 2 2 40 -14 86 -36 46 -22 157 -74 248 -117 91 -43
170 -81 175 -85 6 -4 25 -12 43 -18 l33 -11 47 99 c25 55 49 100 53 100 5 0
61 -25 126 -56 65 -31 145 -69 178 -84 33 -15 128 -60 210 -100 83 -40 186
-89 230 -110 186 -88 296 -140 390 -185 55 -26 156 -74 224 -107 69 -32 127
-60 129 -62 2 -2 -20 -50 -48 -106 -28 -56 -50 -103 -48 -104 5 -3 231 -111
475 -227 46 -21 87 -39 93 -39 14 0 15 3 -40 -116 -39 -82 -48 -109 -38 -116
7 -4 16 -8 19 -8 4 0 87 -39 185 -86 99 -47 199 -95 224 -106 25 -11 66 -31
93 -44 l47 -24 50 101 c28 56 50 104 50 108 0 3 -42 26 -92 50 -51 24 -163 77
-248 118 -85 41 -172 82 -192 90 -21 8 -38 20 -38 27 0 6 20 53 45 104 25 52
45 97 45 101 0 4 -24 18 -52 31 -29 13 -114 53 -188 88 -74 35 -181 86 -237
113 l-102 48 49 103 c38 80 45 105 35 111 -8 4 -161 77 -342 163 -180 86 -375
179 -433 206 -58 28 -143 68 -190 90 -47 22 -148 71 -225 107 -209 100 -285
135 -289 130 -2 -2 -25 -48 -50 -102 -25 -54 -49 -97 -53 -94 -5 2 -37 18 -73
34 -36 17 -114 55 -175 83 -60 29 -157 75 -214 102 -57 27 -108 47 -112 46 -5
-2 -29 -46 -54 -98 -25 -52 -49 -96 -53 -98 -5 -1 -71 27 -148 64 -76 36 -186
88 -244 116 -58 27 -122 58 -143 69 -21 10 -39 19 -40 19 -1 0 -25 -48 -54
-106z"/>
<path d="M5035 11426 c-48 -99 -105 -220 -128 -268 -22 -49 -43 -88 -47 -88
-4 0 -69 29 -145 65 -75 36 -139 65 -141 65 -3 0 -29 -51 -59 -112 -29 -62
-87 -184 -128 -270 l-76 -158 -73 34 c-40 18 -101 48 -136 65 -34 17 -67 31
-74 31 -7 0 -33 -42 -57 -93 -23 -50 -63 -135 -89 -187 -25 -52 -62 -131 -83
-175 l-38 -80 137 -67 c75 -37 142 -67 147 -67 6 -1 24 29 42 67 18 37 66 139
109 227 42 88 85 179 95 203 10 24 22 41 26 39 38 -20 286 -137 288 -135 1 2
9 19 18 38 8 19 52 112 97 205 45 94 93 193 105 220 38 82 36 81 91 52 67 -35
223 -107 233 -107 4 0 36 60 71 133 156 326 190 399 190 403 0 3 -24 16 -52
28 -29 13 -94 44 -144 69 l-92 45 -87 -182z"/>
<path d="M4463 10103 c-25 -54 -47 -101 -50 -106 -2 -4 38 -27 89 -51 51 -24
140 -66 198 -94 58 -27 148 -70 200 -95 146 -69 332 -158 361 -173 27 -13 27
-13 64 64 21 42 43 91 51 108 l13 30 -167 79 c-238 112 -396 187 -561 266 -79
38 -146 69 -148 69 -2 0 -25 -44 -50 -97z"/>
<path d="M4040 10099 c0 -5 -29 -71 -65 -146 -36 -75 -65 -139 -65 -143 0 -5
230 -118 281 -138 4 -2 15 12 22 30 8 18 40 86 72 151 31 65 55 121 52 124
-10 9 -277 133 -287 133 -6 0 -10 -5 -10 -11z"/>
<path d="M4177 9628 c-70 -149 -127 -271 -127 -274 0 -2 4 -4 9 -4 7 0 235
-106 274 -127 4 -3 41 65 81 149 l74 153 -137 67 c-75 37 -141 67 -147 67 -7
1 -19 -14 -27 -31z"/>
<path d="M9221 9628 c-5 -13 -42 -90 -81 -173 -122 -253 -160 -336 -160 -345
0 -6 15 -16 33 -24 17 -7 81 -37 140 -66 60 -28 110 -50 112 -48 4 3 107 217
201 417 30 62 54 116 54 120 -1 5 -241 124 -281 139 -5 2 -13 -7 -18 -20z"/>
<path d="M5184 9433 c-30 -65 -63 -134 -74 -154 l-18 -37 144 -68 c79 -38 144
-72 144 -75 0 -4 -32 -73 -70 -154 -39 -81 -69 -149 -67 -152 8 -7 247 -123
255 -123 5 0 13 -5 19 -11 8 -8 2 -29 -22 -77 -36 -73 -115 -240 -177 -371
-21 -46 -37 -85 -35 -87 2 -2 65 -33 140 -69 75 -36 137 -70 137 -75 0 -10
-25 -64 -144 -315 -97 -203 -96 -199 -88 -206 4 -4 69 -36 144 -72 l137 -65
44 91 c172 359 209 438 206 441 -4 3 -101 49 -216 102 l-72 34 48 103 c27 56
83 174 125 261 42 88 75 160 74 162 -2 1 -66 32 -143 69 -77 36 -141 67 -142
69 -2 2 28 69 67 148 38 80 70 150 70 155 0 8 -235 124 -266 131 -20 5 -18 16
15 85 16 34 47 101 70 149 45 95 45 98 32 98 -8 0 -211 93 -264 122 -15 8 -25
-6 -73 -109z"/>
<path d="M6176 9234 c-25 -53 -46 -99 -46 -103 0 -4 28 -20 63 -36 34 -16 136
-64 227 -108 91 -43 192 -92 225 -107 160 -74 315 -150 315 -154 0 -6 -55
-126 -104 -225 -20 -41 -33 -78 -29 -82 5 -4 70 -36 145 -72 l137 -65 61 126
c33 70 66 139 74 153 15 30 26 23 -191 125 -46 22 -83 42 -83 46 0 4 18 44 39
88 22 45 43 90 46 100 7 21 13 17 -325 177 -244 116 -331 157 -404 194 -44 21
-85 39 -91 39 -7 0 -33 -43 -59 -96z"/>
<path d="M5766 9126 c-72 -151 -82 -176 -67 -176 6 0 54 -21 108 -48 54 -26
115 -55 135 -64 l38 -18 64 135 c36 74 67 144 71 155 6 18 -9 28 -130 85 -75
36 -140 65 -145 65 -5 0 -38 -60 -74 -134z"/>
<path d="M4309 9153 c-18 -38 -50 -105 -72 -150 -22 -44 -37 -85 -34 -90 3 -5
67 -38 141 -73 75 -35 136 -67 136 -71 0 -4 -32 -73 -70 -154 -39 -82 -69
-149 -68 -150 10 -8 262 -125 269 -125 22 0 13 -30 -51 -164 -39 -80 -70 -149
-70 -153 0 -6 228 -120 280 -141 5 -2 123 234 147 295 3 7 -34 30 -94 58 -54
26 -117 56 -140 67 -24 11 -43 26 -43 33 0 11 40 97 114 248 17 33 21 49 12
54 -6 4 -68 35 -139 69 -70 34 -130 63 -132 66 -5 5 34 93 109 247 19 41 23
58 15 68 -6 7 -15 13 -19 13 -6 0 -224 101 -252 116 -4 3 -21 -26 -39 -63z"/>
<path d="M9262 8957 c-5 -7 -16 -28 -25 -47 -18 -39 -122 -259 -187 -393 -23
-49 -40 -90 -38 -92 2 -2 65 -33 141 -69 75 -37 137 -71 137 -76 0 -5 -13 -38
-29 -72 -49 -107 -181 -382 -192 -401 -37 -65 -40 -61 107 -132 75 -36 141
-65 148 -65 6 0 22 24 36 53 20 42 148 312 215 452 l15 30 -138 67 c-75 37
-141 69 -145 70 -5 2 19 62 53 133 151 315 190 398 190 409 0 18 -278 146
-288 133z"/>
<path d="M7890 8474 c-25 -53 -47 -100 -48 -105 -3 -8 147 -84 373 -189 33
-15 139 -66 235 -112 96 -46 195 -93 220 -105 l45 -21 48 95 c26 52 47 100 47
107 0 7 -60 41 -132 76 -239 114 -372 177 -458 217 -47 23 -128 61 -181 87
-53 25 -98 46 -100 46 -2 0 -24 -44 -49 -96z"/>
<path d="M7539 8408 c-7 -18 -37 -82 -66 -142 -29 -60 -53 -114 -53 -121 0 -7
64 -42 142 -78 l143 -67 72 152 c40 83 72 153 70 154 -8 8 -276 134 -285 134
-5 0 -15 -15 -23 -32z"/>
<path d="M7101 8238 c-8 -18 -40 -86 -72 -152 l-57 -118 145 -70 c80 -38 146
-68 148 -66 8 9 145 302 142 304 -6 7 -278 134 -285 134 -4 0 -13 -15 -21 -32z"/>
<path d="M6601 7938 c-43 -90 -97 -205 -121 -255 -24 -51 -50 -93 -57 -93 -7
0 -49 18 -93 40 -44 22 -105 51 -136 65 l-55 24 -80 -167 c-44 -92 -101 -211
-127 -264 l-47 -97 -134 64 c-73 36 -135 65 -138 65 -5 0 -143 -286 -143 -298
0 -12 277 -148 285 -140 2 2 35 69 74 151 39 81 72 147 75 147 4 0 226 -104
257 -121 12 -6 20 1 37 34 19 39 139 290 200 419 15 32 31 58 35 58 7 0 63
-25 231 -106 28 -13 51 -24 54 -24 4 0 252 515 252 525 0 2 -26 16 -57 31 -32
14 -93 44 -137 65 -43 22 -82 39 -88 39 -5 0 -44 -73 -87 -162z"/>
<path d="M8744 7868 c-9 -14 -99 -199 -125 -254 l-19 -43 -92 43 c-51 24 -116
55 -144 69 -38 19 -54 23 -63 14 -6 -6 -11 -14 -11 -18 0 -6 -115 -252 -126
-271 -3 -4 10 -14 28 -22 18 -7 81 -37 140 -65 58 -28 111 -51 116 -51 5 0 40
66 78 146 37 80 71 147 75 150 4 2 67 -25 142 -61 74 -36 139 -65 144 -65 12
0 152 293 144 302 -3 4 -68 36 -143 72 -90 43 -140 61 -144 54z"/>
<path d="M7798 7391 c-39 -83 -76 -151 -80 -151 -10 0 -108 45 -212 97 -38 19
-72 30 -77 26 -4 -4 -37 -71 -73 -148 -36 -77 -69 -141 -74 -143 -5 -1 -70 27
-146 63 -76 36 -139 65 -141 65 -5 0 -145 -289 -145 -299 0 -6 270 -141 283
-141 6 0 137 268 137 281 0 29 24 21 204 -67 49 -24 92 -44 97 -44 7 0 23 31
111 218 21 45 40 82 42 82 2 0 68 -31 147 -68 l143 -68 48 101 c27 55 59 122
72 150 17 36 21 54 14 62 -6 7 -14 13 -18 13 -4 0 -61 26 -126 58 -66 31 -122
59 -127 60 -4 2 -39 -64 -79 -147z"/>
<path d="M4607 6780 c-29 -60 -55 -110 -59 -110 -5 0 -52 21 -105 46 -182 86
-264 124 -269 124 -4 0 -84 -165 -145 -297 -15 -35 -30 -63 -32 -63 -3 0 -53
23 -111 51 -59 28 -108 50 -110 48 -3 -6 -66 -136 -124 -259 -94 -200 -234
-494 -492 -1035 -32 -66 -86 -178 -120 -250 -87 -181 -156 -326 -200 -420 -45
-95 -125 -264 -205 -430 -32 -66 -84 -176 -117 -245 -118 -250 -164 -345 -209
-439 l-47 -96 107 -52 c64 -31 105 -57 103 -65 -3 -15 -21 -54 -73 -163 -22
-44 -39 -83 -39 -86 0 -4 21 -17 48 -29 186 -87 322 -155 322 -162 0 -5 -23
-54 -51 -109 -27 -55 -49 -105 -47 -110 3 -8 190 -100 433 -214 39 -18 126
-59 195 -92 69 -34 154 -74 190 -91 36 -17 139 -66 230 -109 91 -44 197 -95
235 -113 39 -18 116 -55 172 -81 56 -27 106 -49 111 -49 4 0 30 47 56 105 27
58 53 108 58 111 4 3 34 -7 66 -22 31 -15 94 -44 140 -66 88 -42 107 -43 121
-6 19 50 101 218 106 218 2 0 75 -34 161 -75 86 -41 158 -75 160 -75 4 0 101
198 169 345 18 39 61 129 95 200 34 72 82 171 105 220 23 50 67 142 97 205
119 249 157 329 203 425 26 55 75 156 108 225 33 69 76 161 97 205 21 44 68
143 105 220 37 77 80 167 95 200 15 33 69 145 119 249 50 103 91 189 91 191 0
2 62 133 201 421 16 33 29 64 29 67 0 4 -33 22 -74 41 -153 72 -246 117 -246
121 0 2 38 83 85 180 85 177 92 195 76 195 -7 0 -281 127 -289 135 -1 1 20 50
48 109 27 58 50 109 49 114 0 4 -10 13 -22 19 -23 14 -398 193 -402 193 -1 0
-76 35 -166 79 -181 87 -504 240 -644 306 -49 23 -143 68 -207 99 -65 31 -120
56 -123 56 -4 0 -30 -49 -58 -110z m-134 -264 c29 -13 115 -54 192 -91 77 -37
178 -85 225 -107 47 -22 139 -66 205 -98 66 -32 149 -71 185 -88 36 -16 137
-65 225 -107 88 -43 187 -90 220 -105 89 -41 340 -161 343 -165 1 -1 -24 -58
-56 -126 l-59 -124 111 -56 c61 -31 110 -60 109 -65 -1 -8 -39 -88 -183 -389
-29 -60 -54 -112 -56 -114 -2 -2 -53 20 -113 49 -100 47 -131 54 -131 31 0 -5
-27 -66 -61 -135 -69 -144 -55 -138 -169 -80 -36 18 -108 52 -160 77 -52 25
-142 67 -200 95 -58 27 -143 68 -190 90 -177 84 -299 141 -415 197 -120 57
-174 83 -439 209 -77 37 -142 68 -143 70 -2 2 27 68 65 146 l69 143 -108 51
c-60 28 -108 56 -109 62 0 6 42 99 93 205 51 107 104 218 117 247 14 28 30 52
37 52 7 0 58 -22 113 -49 66 -32 102 -45 107 -38 11 18 94 190 104 215 11 27
9 27 72 -2z m-96 -1742 c252 -120 408 -195 411 -199 2 -1 -24 -60 -57 -130
-60 -126 -61 -126 -83 -111 -12 9 -26 16 -31 16 -5 0 -33 -52 -63 -115 -63
-131 -40 -125 -196 -52 l-95 44 -63 -132 -63 -132 -76 37 c-112 55 -173 82
-176 78 -1 -2 -25 -51 -53 -110 -28 -60 -54 -108 -58 -108 -3 0 -75 34 -160
75 -135 65 -154 77 -146 92 6 10 30 61 55 113 25 52 75 158 111 235 37 77 90
189 118 248 29 59 57 106 63 105 25 -6 305 -143 305 -149 0 -4 -22 -53 -49
-110 l-49 -104 101 -48 c55 -26 101 -46 103 -45 7 8 94 201 94 209 0 10 -160
89 -180 89 -5 0 -10 4 -10 10 0 16 113 250 121 250 4 0 61 -25 126 -56z m433
-520 c63 -31 130 -62 148 -69 17 -8 32 -17 32 -20 0 -3 -16 -41 -36 -83 -20
-42 -53 -113 -74 -157 -38 -81 -132 -278 -197 -413 -19 -40 -38 -71 -42 -70
-28 15 -175 85 -236 113 -85 40 -84 25 -17 160 21 44 48 100 60 125 11 25 57
122 102 215 45 94 90 189 101 213 10 23 24 42 31 42 7 0 65 -25 128 -56z
m-937 -443 c45 -21 141 -67 212 -101 72 -34 154 -73 183 -87 29 -14 52 -31 50
-38 -2 -7 -27 -64 -57 -127 l-55 -115 -90 42 c-50 23 -149 71 -221 105 -71 34
-154 73 -182 86 -29 14 -53 27 -53 30 0 3 13 31 29 62 16 31 42 85 57 120 16
34 32 62 37 62 4 0 44 -18 90 -39z"/>
<path d="M4504 6065 c-36 -75 -64 -138 -62 -140 7 -7 302 -145 309 -145 7 0
127 239 132 263 1 5 -5 13 -13 18 -29 17 -259 127 -280 134 -18 6 -28 -8 -86
-130z"/>
<path d="M2542 2452 c-12 -26 -56 -121 -100 -212 -217 -452 -254 -531 -250
-535 2 -2 42 -22 91 -44 48 -23 87 -43 87 -45 0 -7 -55 -125 -147 -316 -48
-102 -95 -201 -104 -220 l-16 -35 91 -43 c150 -72 131 -74 176 23 22 47 42 85
45 85 3 0 32 -13 65 -30 l59 -30 -71 -147 c-38 -82 -85 -179 -103 -218 -18
-38 -63 -133 -100 -210 -37 -77 -88 -183 -112 -235 -25 -52 -49 -103 -55 -113
-8 -15 6 -25 104 -72 l113 -55 50 103 c28 57 74 155 104 218 30 63 55 115 56
117 1 1 41 -15 89 -38 48 -22 91 -40 95 -40 4 0 42 72 84 161 42 88 80 158 84
156 5 -2 38 -18 75 -35 l67 -32 -25 -56 c-14 -31 -33 -73 -44 -94 l-19 -37
108 -52 c60 -28 111 -51 115 -51 4 0 31 51 60 113 29 61 76 159 104 217 163
340 192 403 192 411 0 14 7 12 94 -30 142 -67 157 -74 160 -70 4 4 75 152 166
344 21 44 73 152 115 240 42 88 81 170 86 183 8 21 3 26 -74 61 -45 22 -149
71 -231 110 -81 39 -150 71 -152 71 -5 0 -174 -349 -174 -359 0 -4 -5 -12 -11
-18 -8 -8 -33 -1 -92 28 l-80 39 -38 -78 c-54 -109 -182 -379 -204 -429 l-18
-41 -76 34 c-42 20 -80 39 -85 44 -5 5 6 39 28 83 20 40 36 78 36 84 0 10 -49
36 -168 89 -29 14 -51 28 -49 32 6 10 103 214 138 289 16 35 29 67 29 72 0 6
-40 29 -90 52 -49 23 -90 43 -90 43 0 1 24 51 54 112 30 61 64 133 76 160 13
27 31 66 41 87 l19 37 -127 61 c-71 33 -141 67 -158 76 -72 36 -71 36 -93 -15z"/>
</g>
</svg>
